<?xml version="1.0" encoding="utf-8"?>
<!-- Generator: Adobe Illustrator 19.0.0, SVG Export Plug-In . SVG Version: 6.00 Build 0)  -->
<svg version="1.1" id="Layer_1" xmlns="http://www.w3.org/2000/svg" xmlns:xlink="http://www.w3.org/1999/xlink" x="0px" y="0px"
	 viewBox="0 0 96 96" style="enable-background:new 0 0 96 96;" xml:space="preserve">
<style type="text/css">
	.st0{fill:#2980B9;}
	.st1{fill:#BDC3C7;}
	.st2{fill:#3498DB;}
</style>
<g id="XMLID_1_">
	<path id="XMLID_3_" class="st0" d="M20.9,29c-3,0-5.4,2.4-5.4,5.4v37.9c0,3,2.4,5.4,5.4,5.4h54.2c3,0,5.4-2.4,5.4-5.4V34.5
		c0-3-2.4-5.4-5.4-5.4H20.9z"/>
	<path id="XMLID_4_" class="st0" d="M23.6,18.2c-3,0-5.4,2.4-5.4,5.4v37.9c0,3,2.4,5.4,5.4,5.4h29.8H67h5.4c3,0,5.4-2.4,5.4-5.4
		V37.2V29c0-3-2.4-5.4-5.4-5.4H67H53.4h-2.7l-8.1-5.4H23.6z"/>
	<path id="XMLID_5_" class="st1" d="M77.8,53.4V31.8c0-3-2.4-5.4-5.4-5.4H42.6H29h-5.4c-3,0-5.4,2.4-5.4,5.4v21.7H77.8z"/>
	<path id="XMLID_6_" class="st2" d="M20.9,29c-3,0-5.4,2.4-5.4,5.4v16.3v2.7v16.2c0,3,2.4,5.4,5.4,5.4h54.2c3,0,5.4-2.4,5.4-5.4
		V53.4v-2.7V34.5c0-3-2.4-5.4-5.4-5.4H20.9z"/>
</g>
</svg>
